<svg width="558" height="131" viewBox="0 0 558 131" fill="none" xmlns="http://www.w3.org/2000/svg">
<rect width="558" height="131" fill="#F5F5F5"/>
<rect width="558" height="131" fill="white"/>
<path d="M5.51136 124L24.8295 7.63636H66.3068C75.322 7.63636 82.5379 9.18939 87.9545 12.2955C93.4091 15.3636 97.1591 19.6439 99.2045 25.1364C101.288 30.5909 101.742 36.9167 100.568 44.1136C99.3561 51.2348 96.7992 57.4848 92.8977 62.8636C89.0341 68.2424 83.8636 72.447 77.3864 75.4773C70.947 78.4697 63.2197 79.9659 54.2045 79.9659H22.7841L25.3977 64.8523H55.2273C60.947 64.8523 65.7197 64.0379 69.5455 62.4091C73.3712 60.7803 76.3636 58.4129 78.5227 55.3068C80.7197 52.2008 82.1591 48.4697 82.8409 44.1136C83.5606 39.6818 83.3523 35.875 82.2159 32.6932C81.0795 29.4735 78.8636 27.0114 75.5682 25.3068C72.2727 23.5644 67.7462 22.6932 61.9886 22.6932H39.9432L23.0682 124H5.51136ZM71.6477 71.5L91.7045 124H71.7045L52.1591 71.5H71.6477ZM144.034 125.761C135.473 125.761 128.39 123.924 122.784 120.25C117.216 116.538 113.314 111.33 111.08 104.625C108.845 97.8826 108.485 89.9848 110 80.9318C111.477 71.9924 114.451 64.1136 118.92 57.2955C123.39 50.4773 128.958 45.1553 135.625 41.3295C142.33 37.5038 149.735 35.5909 157.841 35.5909C162.765 35.5909 167.405 36.4053 171.761 38.0341C176.155 39.6629 179.886 42.2197 182.955 45.7045C186.023 49.1894 188.144 53.7159 189.318 59.2841C190.53 64.8144 190.492 71.5379 189.205 79.4545L188.239 85.4773H118.807L120.795 72.75H173.523C174.318 68.2803 174.11 64.322 172.898 60.875C171.686 57.3902 169.602 54.6439 166.648 52.6364C163.731 50.6288 160.057 49.625 155.625 49.625C151.08 49.625 146.837 50.8182 142.898 53.2045C138.958 55.5909 135.663 58.6402 133.011 62.3523C130.398 66.0265 128.75 69.8144 128.068 73.7159L126.08 85.3636C125.095 91.7273 125.265 96.8409 126.591 100.705C127.955 104.568 130.341 107.371 133.75 109.114C137.159 110.856 141.42 111.727 146.534 111.727C149.83 111.727 152.879 111.273 155.682 110.364C158.523 109.417 161.042 108.034 163.239 106.216C165.436 104.36 167.273 102.049 168.75 99.2841L184.318 102.182C182.235 106.917 179.242 111.064 175.341 114.625C171.439 118.148 166.837 120.894 161.534 122.864C156.269 124.795 150.436 125.761 144.034 125.761ZM200.923 124L215.469 36.7273H231.776L229.389 50.9318H230.469C233.12 46.1212 236.719 42.3712 241.264 39.6818C245.848 36.9545 251.037 35.5909 256.832 35.5909C262.59 35.5909 267.23 36.9545 270.753 39.6818C274.313 42.4091 276.643 46.1591 277.741 50.9318H278.651C281.454 46.2348 285.374 42.5038 290.412 39.7386C295.45 36.9735 301.113 35.5909 307.401 35.5909C315.241 35.5909 321.264 38.0909 325.469 43.0909C329.711 48.053 330.999 55.5152 329.332 65.4773L319.56 124H302.514L312.06 67.0682C313.007 61.1212 312.098 56.8409 309.332 54.2273C306.567 51.5758 302.95 50.25 298.48 50.25C292.95 50.25 288.366 51.9545 284.73 55.3636C281.094 58.7348 278.859 63.072 278.026 68.375L268.651 124H251.776L261.491 65.9886C262.249 61.2159 261.378 57.4091 258.878 54.5682C256.416 51.6894 252.817 50.25 248.082 50.25C244.863 50.25 241.738 51.1023 238.707 52.8068C235.715 54.5114 233.158 56.8598 231.037 59.8523C228.916 62.8447 227.533 66.2917 226.889 70.1932L217.912 124H200.923ZM342.273 124L356.818 36.7273H373.807L359.261 124H342.273ZM368.864 23.0909C365.909 23.0909 363.409 22.1061 361.364 20.1364C359.356 18.1288 358.428 15.7424 358.58 12.9773C358.731 10.1742 359.905 7.78787 362.102 5.81818C364.299 3.8106 366.856 2.80681 369.773 2.80681C372.727 2.80681 375.208 3.8106 377.216 5.81818C379.223 7.78787 380.17 10.1742 380.057 12.9773C379.905 15.7424 378.731 18.1288 376.534 20.1364C374.375 22.1061 371.818 23.0909 368.864 23.0909ZM402.628 94.3977L405.866 73.6591H408.878L449.901 36.7273H470.241L423.651 78.7727H420.98L402.628 94.3977ZM382.116 124L401.435 7.63636H418.423L399.105 124H382.116ZM437.23 124L412.912 82.5227L426.491 70.6477L458.082 124H437.23ZM496.349 125.932C490.819 125.932 485.99 124.909 481.861 122.864C477.732 120.78 474.683 117.769 472.713 113.83C470.743 109.89 470.232 105.061 471.179 99.3409C472.012 94.4167 473.641 90.3636 476.065 87.1818C478.527 84 481.52 81.4811 485.043 79.625C488.565 77.7311 492.391 76.3106 496.52 75.3636C500.649 74.4167 504.815 73.7159 509.02 73.2614C514.323 72.6553 518.622 72.1439 521.918 71.7273C525.251 71.3106 527.751 70.6667 529.418 69.7955C531.084 68.8864 532.088 67.4091 532.429 65.3636V64.9659C533.224 60.0417 532.505 56.2159 530.27 53.4886C528.073 50.7235 524.247 49.3409 518.793 49.3409C513.111 49.3409 508.338 50.5909 504.474 53.0909C500.649 55.5909 497.827 58.3939 496.009 61.5L480.781 57.8636C483.509 52.5606 486.974 48.2803 491.179 45.0227C495.421 41.7273 500.062 39.3409 505.099 37.8636C510.137 36.3485 515.289 35.5909 520.554 35.5909C524.039 35.5909 527.656 36.0076 531.406 36.8409C535.156 37.6364 538.565 39.1136 541.634 41.2727C544.74 43.4318 547.05 46.5189 548.565 50.5341C550.08 54.5114 550.308 59.6818 549.247 66.0455L539.645 124H523.054L525.099 112.068H524.418C522.978 114.265 520.971 116.424 518.395 118.545C515.857 120.667 512.751 122.428 509.077 123.83C505.402 125.231 501.16 125.932 496.349 125.932ZM502.145 112.295C506.88 112.295 511.065 111.367 514.702 109.511C518.376 107.655 521.349 105.231 523.622 102.239C525.895 99.2083 527.315 95.9697 527.884 92.5227L529.759 81.2727C529.039 81.8788 527.77 82.428 525.952 82.9205C524.171 83.4129 522.164 83.8485 519.929 84.2273C517.694 84.6061 515.497 84.928 513.338 85.1932C511.217 85.4583 509.455 85.7045 508.054 85.9318C504.721 86.3485 501.596 87.0492 498.679 88.0341C495.8 89.0189 493.395 90.4394 491.463 92.2955C489.531 94.1136 488.319 96.5379 487.827 99.5682C487.145 103.773 488.149 106.955 490.838 109.114C493.565 111.235 497.334 112.295 502.145 112.295Z" fill="black"/>
</svg>
