<svg width="533" height="159" viewBox="0 0 533 159" fill="none" xmlns="http://www.w3.org/2000/svg">
<rect x="0.195557" width="490" height="159" fill="white"/>
<path d="M41.1335 125L55.6222 37.7273H86.7301C93.4915 37.7273 98.9034 38.892 102.966 41.2216C107.057 43.5227 109.869 46.733 111.403 50.8523C112.966 54.9432 113.307 59.6875 112.426 65.0852C111.517 70.4261 109.599 75.1136 106.673 79.1477C103.776 83.1818 99.8977 86.3352 95.0398 88.608C90.2102 90.8523 84.4148 91.9744 77.6534 91.9744H54.0881L56.0483 80.6392H78.4205C82.7102 80.6392 86.2898 80.0284 89.1591 78.8068C92.0284 77.5852 94.2727 75.8097 95.892 73.4801C97.5398 71.1506 98.6193 68.3523 99.1307 65.0852C99.6705 61.7614 99.5142 58.9062 98.6619 56.5199C97.8097 54.1051 96.1477 52.2585 93.6761 50.9801C91.2045 49.6733 87.8097 49.0199 83.4915 49.0199H66.9574L54.3011 125H41.1335ZM90.7358 85.625L105.778 125H90.7784L76.1193 85.625H90.7358Z" fill="#1E4ED2"/>
<path d="M145.026 126.321C138.605 126.321 133.293 124.943 129.088 122.188C124.912 119.403 121.986 115.497 120.31 110.469C118.634 105.412 118.364 99.4886 119.5 92.6989C120.608 85.9943 122.838 80.0852 126.19 74.9716C129.543 69.858 133.719 65.8665 138.719 62.9972C143.747 60.1278 149.301 58.6932 155.381 58.6932C159.074 58.6932 162.554 59.304 165.821 60.5256C169.116 61.7472 171.915 63.6648 174.216 66.2784C176.517 68.892 178.108 72.2869 178.989 76.4631C179.898 80.6108 179.869 85.6534 178.903 91.5909L178.179 96.108H126.105L127.597 86.5625H167.142C167.739 83.2102 167.582 80.2415 166.673 77.6562C165.764 75.0426 164.202 72.983 161.986 71.4773C159.798 69.9716 157.043 69.2188 153.719 69.2188C150.31 69.2188 147.128 70.1136 144.173 71.9034C141.219 73.6932 138.747 75.9801 136.759 78.7642C134.798 81.5199 133.563 84.3608 133.051 87.2869L131.56 96.0227C130.821 100.795 130.949 104.631 131.943 107.528C132.966 110.426 134.756 112.528 137.312 113.835C139.869 115.142 143.065 115.795 146.901 115.795C149.372 115.795 151.659 115.455 153.761 114.773C155.892 114.062 157.781 113.026 159.429 111.662C161.077 110.27 162.455 108.537 163.562 106.463L175.239 108.636C173.676 112.187 171.432 115.298 168.506 117.969C165.58 120.611 162.128 122.67 158.151 124.148C154.202 125.597 149.827 126.321 145.026 126.321ZM187.692 125L198.602 59.5455H210.832L209.042 70.1989H209.852C211.84 66.5909 214.539 63.7784 217.948 61.7614C221.386 59.7159 225.278 58.6932 229.624 58.6932C233.942 58.6932 237.423 59.7159 240.065 61.7614C242.735 63.8068 244.482 66.6193 245.306 70.1989H245.988C248.09 66.6761 251.031 63.8778 254.809 61.804C258.587 59.7301 262.835 58.6932 267.55 58.6932C273.431 58.6932 277.948 60.5682 281.102 64.3182C284.283 68.0398 285.249 73.6364 283.999 81.108L276.67 125H263.886L271.045 82.3011C271.755 77.8409 271.073 74.6307 268.999 72.6705C266.925 70.6818 264.212 69.6875 260.86 69.6875C256.712 69.6875 253.275 70.9659 250.548 73.5227C247.82 76.0511 246.144 79.304 245.519 83.2812L238.488 125H225.832L233.119 81.4915C233.687 77.9119 233.033 75.0568 231.158 72.9261C229.312 70.767 226.613 69.6875 223.062 69.6875C220.647 69.6875 218.303 70.3267 216.031 71.6051C213.786 72.8835 211.869 74.6449 210.278 76.8892C208.687 79.1335 207.65 81.7187 207.167 84.6449L200.434 125H187.692ZM293.705 125L304.614 59.5455H317.355L306.446 125H293.705ZM313.648 49.3182C311.432 49.3182 309.557 48.5795 308.023 47.1023C306.517 45.5966 305.821 43.8068 305.935 41.733C306.048 39.6307 306.929 37.8409 308.577 36.3636C310.224 34.858 312.142 34.1051 314.33 34.1051C316.545 34.1051 318.406 34.858 319.912 36.3636C321.418 37.8409 322.128 39.6307 322.043 41.733C321.929 43.8068 321.048 45.5966 319.401 47.1023C317.781 48.5795 315.864 49.3182 313.648 49.3182ZM338.971 102.798L341.4 87.2443H343.658L374.425 59.5455H389.681L354.738 91.0795H352.735L338.971 102.798ZM323.587 125L338.076 37.7273H350.817L336.329 125H323.587ZM364.923 125L346.684 93.892L356.869 84.9858L380.562 125H364.923ZM409.262 126.449C405.114 126.449 401.492 125.682 398.396 124.148C395.299 122.585 393.012 120.327 391.535 117.372C390.058 114.418 389.674 110.795 390.384 106.506C391.009 102.812 392.231 99.7727 394.049 97.3864C395.896 95 398.14 93.1108 400.782 91.7188C403.424 90.2983 406.293 89.233 409.39 88.5227C412.487 87.8125 415.612 87.2869 418.765 86.946C422.742 86.4915 425.967 86.108 428.438 85.7955C430.938 85.483 432.813 85 434.063 84.3466C435.313 83.6648 436.066 82.5568 436.322 81.0227V80.7244C436.918 77.0312 436.379 74.1619 434.702 72.1165C433.055 70.0426 430.185 69.0057 426.094 69.0057C421.833 69.0057 418.254 69.9432 415.356 71.8182C412.487 73.6932 410.37 75.7955 409.006 78.125L397.586 75.3977C399.631 71.4205 402.231 68.2102 405.384 65.767C408.566 63.2955 412.046 61.5057 415.825 60.3977C419.603 59.2614 423.467 58.6932 427.415 58.6932C430.029 58.6932 432.742 59.0057 435.555 59.6307C438.367 60.2273 440.924 61.3352 443.225 62.9545C445.555 64.5739 447.288 66.8892 448.424 69.9006C449.56 72.8835 449.731 76.7614 448.935 81.5341L441.734 125H429.29L430.825 116.051H430.313C429.234 117.699 427.728 119.318 425.796 120.909C423.893 122.5 421.563 123.821 418.808 124.872C416.052 125.923 412.87 126.449 409.262 126.449ZM413.609 116.222C417.16 116.222 420.299 115.526 423.026 114.134C425.782 112.741 428.012 110.923 429.717 108.679C431.421 106.406 432.487 103.977 432.913 101.392L434.319 92.9545C433.779 93.4091 432.827 93.821 431.464 94.1903C430.129 94.5597 428.623 94.8864 426.947 95.1705C425.271 95.4545 423.623 95.696 422.004 95.8949C420.413 96.0937 419.092 96.2784 418.04 96.4489C415.54 96.7614 413.197 97.2869 411.009 98.0256C408.85 98.7642 407.046 99.8295 405.597 101.222C404.148 102.585 403.239 104.403 402.87 106.676C402.359 109.83 403.112 112.216 405.129 113.835C407.174 115.426 410.001 116.222 413.609 116.222Z" fill="black"/>
</svg>
