<svg width="662" height="143" viewBox="0 0 662 143" fill="none" xmlns="http://www.w3.org/2000/svg">
<rect width="647" height="143" fill="#001529"/>
<path d="M115.841 49.9318C115.864 46.5 114.75 43.875 112.5 42.0568C110.273 40.2386 107.159 39.3295 103.159 39.3295C100.295 39.3295 97.7386 39.7841 95.4886 40.6932C93.2614 41.5795 91.4432 42.8068 90.0341 44.375C88.6477 45.9205 87.7955 47.6818 87.4773 49.6591C87.1818 51.3182 87.3295 52.75 87.9205 53.9545C88.5341 55.1591 89.4091 56.1705 90.5455 56.9886C91.7045 57.7841 92.9773 58.4545 94.3636 59C95.75 59.5227 97.0909 59.9545 98.3864 60.2955L104.932 62.0682C107.045 62.6136 109.193 63.3523 111.375 64.2841C113.557 65.2159 115.523 66.4432 117.273 67.9659C119.023 69.4886 120.33 71.375 121.193 73.625C122.057 75.875 122.227 78.5682 121.705 81.7045C121.023 85.6591 119.42 89.1705 116.898 92.2386C114.375 95.3068 111.045 97.7273 106.909 99.5C102.773 101.273 97.9773 102.159 92.5227 102.159C87.2955 102.159 82.8977 101.33 79.3295 99.6705C75.7841 98.0114 73.1818 95.6591 71.5227 92.6136C69.8636 89.5455 69.2727 85.9091 69.75 81.7045H80.3523C80.1023 84.2273 80.5568 86.3295 81.7159 88.0114C82.8977 89.6705 84.5568 90.9091 86.6932 91.7273C88.8295 92.5227 91.25 92.9205 93.9545 92.9205C96.9545 92.9205 99.6932 92.4545 102.17 91.5227C104.648 90.5682 106.693 89.25 108.307 87.5682C109.92 85.8636 110.909 83.875 111.273 81.6023C111.636 79.5341 111.341 77.8409 110.386 76.5227C109.455 75.2045 108.045 74.1136 106.159 73.25C104.295 72.3864 102.17 71.625 99.7841 70.9659L91.9091 68.7159C86.5682 67.1932 82.5227 64.9545 79.7727 62C77.0227 59.0455 76.0341 55.1364 76.8068 50.2727C77.4886 46.25 79.1705 42.7386 81.8523 39.7386C84.5341 36.7386 87.875 34.4091 91.875 32.75C95.875 31.0682 100.216 30.2273 104.898 30.2273C109.625 30.2273 113.648 31.0682 116.966 32.75C120.284 34.4318 122.739 36.75 124.33 39.7045C125.92 42.6591 126.477 46.0682 126 49.9318H115.841ZM163.44 48.6364L162.111 56.8182H133.509L134.838 48.6364H163.44ZM144.554 36.0909H154.747L146.497 85.625C146.179 87.6023 146.236 89.0909 146.668 90.0909C147.099 91.0682 147.759 91.7386 148.645 92.1023C149.554 92.4432 150.565 92.6136 151.679 92.6136C152.497 92.6136 153.213 92.5568 153.827 92.4432C154.44 92.3295 154.929 92.2386 155.293 92.1705L155.838 100.591C155.156 100.818 154.236 101.045 153.077 101.273C151.94 101.523 150.554 101.659 148.918 101.682C146.236 101.727 143.815 101.25 141.656 100.25C139.497 99.2273 137.884 97.6818 136.815 95.6136C135.747 93.5227 135.486 90.8977 136.031 87.7386L144.554 36.0909ZM165.989 101L174.716 48.6364H184.568L183.17 56.9545H183.716C185.125 54.1364 187.182 51.9205 189.886 50.3068C192.591 48.6705 195.477 47.8523 198.545 47.8523C199.205 47.8523 199.955 47.875 200.795 47.9205C201.636 47.9432 202.318 48 202.841 48.0909L201.205 57.8409C200.818 57.7273 200.114 57.6023 199.091 57.4659C198.068 57.3068 197.011 57.2273 195.92 57.2273C193.534 57.2273 191.318 57.7386 189.273 58.7614C187.227 59.7614 185.511 61.1591 184.125 62.9545C182.739 64.7273 181.841 66.75 181.432 69.0227L176.182 101H165.989ZM217.653 102.159C214.335 102.159 211.438 101.545 208.96 100.318C206.483 99.0682 204.653 97.2614 203.472 94.8977C202.29 92.5341 201.983 89.6364 202.551 86.2045C203.051 83.25 204.028 80.8182 205.483 78.9091C206.96 77 208.756 75.4886 210.869 74.375C212.983 73.2386 215.278 72.3864 217.756 71.8182C220.233 71.25 222.733 70.8295 225.256 70.5568C228.438 70.1932 231.017 69.8864 232.994 69.6364C234.994 69.3864 236.494 69 237.494 68.4773C238.494 67.9318 239.097 67.0455 239.301 65.8182V65.5795C239.778 62.625 239.347 60.3295 238.006 58.6932C236.688 57.0341 234.392 56.2045 231.119 56.2045C227.71 56.2045 224.847 56.9545 222.528 58.4545C220.233 59.9545 218.54 61.6364 217.449 63.5L208.312 61.3182C209.949 58.1364 212.028 55.5682 214.551 53.6136C217.097 51.6364 219.881 50.2045 222.903 49.3182C225.926 48.4091 229.017 47.9545 232.176 47.9545C234.267 47.9545 236.438 48.2045 238.688 48.7045C240.938 49.1818 242.983 50.0682 244.824 51.3636C246.688 52.6591 248.074 54.5114 248.983 56.9205C249.892 59.3068 250.028 62.4091 249.392 66.2273L243.631 101H233.676L234.903 93.8409H234.494C233.631 95.1591 232.426 96.4545 230.881 97.7273C229.358 99 227.494 100.057 225.29 100.898C223.085 101.739 220.54 102.159 217.653 102.159ZM221.131 93.9773C223.972 93.9773 226.483 93.4205 228.665 92.3068C230.869 91.1932 232.653 89.7386 234.017 87.9432C235.381 86.125 236.233 84.1818 236.574 82.1136L237.699 75.3636C237.267 75.7273 236.506 76.0568 235.415 76.3523C234.347 76.6477 233.142 76.9091 231.801 77.1364C230.46 77.3636 229.142 77.5568 227.847 77.7159C226.574 77.875 225.517 78.0227 224.676 78.1591C222.676 78.4091 220.801 78.8295 219.051 79.4205C217.324 80.0114 215.881 80.8636 214.722 81.9773C213.563 83.0682 212.835 84.5227 212.54 86.3409C212.131 88.8636 212.733 90.7727 214.347 92.0682C215.983 93.3409 218.244 93.9773 221.131 93.9773ZM290.378 48.6364L289.048 56.8182H260.446L261.776 48.6364H290.378ZM271.491 36.0909H281.685L273.435 85.625C273.116 87.6023 273.173 89.0909 273.605 90.0909C274.037 91.0682 274.696 91.7386 275.582 92.1023C276.491 92.4432 277.503 92.6136 278.616 92.6136C279.435 92.6136 280.151 92.5568 280.764 92.4432C281.378 92.3295 281.866 92.2386 282.23 92.1705L282.776 100.591C282.094 100.818 281.173 101.045 280.014 101.273C278.878 101.523 277.491 101.659 275.855 101.682C273.173 101.727 270.753 101.25 268.594 100.25C266.435 99.2273 264.821 97.6818 263.753 95.6136C262.685 93.5227 262.423 90.8977 262.969 87.7386L271.491 36.0909ZM314.795 102.057C309.659 102.057 305.409 100.955 302.045 98.75C298.705 96.5227 296.364 93.3977 295.023 89.375C293.682 85.3295 293.466 80.5909 294.375 75.1591C295.261 69.7955 297.045 65.0682 299.727 60.9773C302.409 56.8864 305.75 53.6932 309.75 51.3977C313.773 49.1023 318.216 47.9545 323.08 47.9545C326.034 47.9545 328.818 48.4432 331.432 49.4205C334.068 50.3977 336.307 51.9318 338.148 54.0227C339.989 56.1136 341.261 58.8295 341.966 62.1705C342.693 65.4886 342.67 69.5227 341.898 74.2727L341.318 77.8864H299.659L300.852 70.25H332.489C332.966 67.5682 332.841 65.1932 332.114 63.125C331.386 61.0341 330.136 59.3864 328.364 58.1818C326.614 56.9773 324.409 56.375 321.75 56.375C319.023 56.375 316.477 57.0909 314.114 58.5227C311.75 59.9545 309.773 61.7841 308.182 64.0114C306.614 66.2159 305.625 68.4886 305.216 70.8295L304.023 77.8182C303.432 81.6364 303.534 84.7045 304.33 87.0227C305.148 89.3409 306.58 91.0227 308.625 92.0682C310.67 93.1136 313.227 93.6364 316.295 93.6364C318.273 93.6364 320.102 93.3636 321.784 92.8182C323.489 92.25 325 91.4205 326.318 90.3295C327.636 89.2159 328.739 87.8295 329.625 86.1705L338.966 87.9091C337.716 90.75 335.92 93.2386 333.58 95.375C331.239 97.4886 328.477 99.1364 325.295 100.318C322.136 101.477 318.636 102.057 314.795 102.057ZM367.577 121.727C363.395 121.727 359.895 121.182 357.077 120.091C354.281 119 352.077 117.557 350.463 115.761C348.872 113.966 347.77 112 347.156 109.864L356.565 106.25C357.02 107.25 357.656 108.307 358.474 109.42C359.293 110.557 360.509 111.523 362.122 112.318C363.759 113.114 365.997 113.511 368.838 113.511C372.702 113.511 376.077 112.568 378.963 110.682C381.849 108.818 383.634 105.841 384.315 101.75L385.918 91.4545H385.27C384.497 92.5682 383.429 93.8068 382.065 95.1705C380.702 96.5341 378.94 97.7159 376.781 98.7159C374.622 99.7159 371.94 100.216 368.736 100.216C364.599 100.216 361.031 99.25 358.031 97.3182C355.054 95.3636 352.918 92.4886 351.622 88.6932C350.327 84.875 350.145 80.1818 351.077 74.6136C351.986 69.0455 353.713 64.2727 356.259 60.2955C358.827 56.3182 361.94 53.2727 365.599 51.1591C369.281 49.0227 373.224 47.9545 377.429 47.9545C380.679 47.9545 383.213 48.5 385.031 49.5909C386.872 50.6591 388.236 51.9091 389.122 53.3409C390.009 54.7727 390.656 56.0341 391.065 57.125H391.815L393.213 48.6364H403.202L394.338 102.159C393.611 106.659 391.963 110.352 389.395 113.239C386.849 116.125 383.679 118.261 379.884 119.648C376.111 121.034 372.009 121.727 367.577 121.727ZM372.213 91.7614C375.122 91.7614 377.713 91.0795 379.986 89.7159C382.281 88.3295 384.19 86.3523 385.713 83.7841C387.236 81.1932 388.293 78.0909 388.884 74.4773C389.474 70.9545 389.44 67.8523 388.781 65.1705C388.145 62.4886 386.906 60.3977 385.065 58.8977C383.247 57.375 380.872 56.6136 377.94 56.6136C374.849 56.6136 372.168 57.4091 369.895 59C367.622 60.5682 365.77 62.7045 364.338 65.4091C362.929 68.1136 361.94 71.1364 361.372 74.4773C360.827 77.9091 360.838 80.9205 361.406 83.5114C361.997 86.1023 363.179 88.125 364.952 89.5795C366.724 91.0341 369.145 91.7614 372.213 91.7614ZM411.384 120.636C409.838 120.636 408.463 120.511 407.259 120.261C406.054 120.034 405.156 119.784 404.565 119.511L408.452 111.159C410.247 111.659 411.849 111.852 413.259 111.739C414.69 111.625 416.031 111.034 417.281 109.966C418.531 108.898 419.804 107.216 421.099 104.92L423.009 101.477L412.747 48.6364H423.247L429.724 89.375H430.27L450.315 48.6364H461.668L430.27 107.92C428.793 110.739 427.111 113.08 425.224 114.943C423.361 116.83 421.27 118.25 418.952 119.205C416.656 120.159 414.134 120.636 411.384 120.636ZM466.807 101.648C464.898 101.648 463.307 100.989 462.034 99.6705C460.784 98.3523 460.17 96.7386 460.193 94.8295C460.216 92.9432 460.92 91.3636 462.307 90.0909C463.716 88.7955 465.352 88.1477 467.216 88.1477C469.08 88.1477 470.67 88.8068 471.989 90.125C473.307 91.4432 473.92 93.0114 473.83 94.8295C473.761 96.1023 473.398 97.2614 472.739 98.3068C472.102 99.3295 471.261 100.148 470.216 100.761C469.17 101.352 468.034 101.648 466.807 101.648ZM493.142 101H481.96L518.676 31.1818H530.847L544.381 101H533.199L523.006 43.8636H522.46L493.142 101ZM499.551 73.6591H535.824L534.324 82.5227H498.051L499.551 73.6591ZM576.588 31.1818L564.997 101H554.463L566.054 31.1818H576.588Z" fill="white"/>
</svg>
