<?xml version="1.0" standalone="no"?><!DOCTYPE svg PUBLIC "-//W3C//DTD SVG 1.1//EN" "http://www.w3.org/Graphics/SVG/1.1/DTD/svg11.dtd"><svg t="1743599839481" class="icon" viewBox="0 0 1024 1024" version="1.1" xmlns="http://www.w3.org/2000/svg" p-id="5031" xmlns:xlink="http://www.w3.org/1999/xlink" width="200" height="200"><path d="M1012.834891 615.676012L913.943925 191.401869c-6.380062-22.330218-25.520249-47.850467-51.040498-54.230529L419.489097 0h-15.950156c-19.140187 0-38.280374 6.380062-51.040499 19.140187l-319.003115 296.672897c-15.950156 15.950156-25.520249 47.850467-22.330218 66.990654l105.271028 452.984424c6.380062 22.330218 25.520249 47.850467 51.040499 54.23053l414.704049 130.791277c6.380062 3.190031 12.760125 3.190031 19.140187 3.190031 19.140187 0 38.280374-6.380062 51.040499-19.140187l341.333333-315.813084c15.950156-22.330218 25.520249-51.040498 19.140187-73.370717z m-545.495327-513.595015l306.242991 92.510903c12.760125 3.190031 12.760125 9.570093 0 12.760125l-159.501558 35.090343c-12.760125 3.190031-28.71028-3.190031-38.280374-9.570094l-111.65109-121.221184c-9.570093-9.570093-9.570093-12.760125 3.190031-9.570093z m191.401869 545.495327c3.190031 12.760125-3.190031 19.140187-15.950156 15.950156l-328.573208-102.080997c-12.760125-3.190031-15.950156-12.760125-6.380063-22.330218l252.012461-232.872274c9.570093-9.570093 19.140187-6.380062 22.330218 6.380062l76.560748 334.953271z m-542.305296-296.672897l267.962617-248.82243c9.570093-9.570093 22.330218-6.380062 31.900311 0l133.981309 143.551402c9.570093 9.570093 6.380062 22.330218 0 31.900311l-267.962617 248.82243c-9.570093 9.570093-22.330218 6.380062-31.900312 0l-133.981308-143.551402c-9.570093-9.570093-9.570093-25.520249 0-31.900311z m63.800623 392.373832l-70.180685-309.433022c-3.190031-12.760125 3.190031-15.950156 9.570093-6.380063l111.651091 121.221184c9.570093 9.570093 12.760125 25.520249 9.570093 38.280374l-47.850467 156.311527c-3.190031 12.760125-9.570093 12.760125-12.760125 0z m392.373832 185.021806L224.897196 819.838006c-9.570093-3.190031-15.950156-12.760125-15.950156-22.330218v-6.380062l57.420561-188.211838c3.190031-9.570093 12.760125-15.950156 22.330218-15.950156h6.380063l347.713395 108.461059c12.760125 3.190031 19.140187 15.950156 15.950156 28.710281l-57.420561 188.211838c-3.190031 9.570093-12.760125 15.950156-25.520249 15.950155h-3.190031z m309.433022-255.202492l-232.872274 216.922119c-9.570093 9.570093-12.760125 6.380062-9.570094-6.380063l47.850467-156.311526c3.190031-12.760125 15.950156-25.520249 28.710281-25.520249l159.501557-35.090343c12.760125-6.380062 12.760125-3.190031 6.380063 6.380062z m25.520249-47.850467l-191.401869 44.660436c-12.760125 3.190031-25.520249-3.190031-28.710281-15.950156l-82.94081-354.093458c-3.190031-12.760125 3.190031-25.520249 15.950156-28.71028l191.401869-44.660436c12.760125-3.190031 25.520249 3.190031 28.710281 15.950156l82.94081 354.093458c3.190031 15.950156-3.190031 25.520249-15.950156 28.71028z" fill="#22ADF6" p-id="5032"></path></svg>